<?xml version="1.0" encoding="UTF-8" standalone="no"?>
<!DOCTYPE svg PUBLIC "-//W3C//DTD SVG 1.1//EN"
 "http://www.w3.org/Graphics/SVG/1.1/DTD/svg11.dtd">
<!-- Generated by graphviz version 13.1.0 (20250701.0955)
 -->
<!-- Title: interface/driver_ir_remote_interface.h Pages: 1 -->
<svg width="419pt" height="176pt"
 viewBox="0.00 0.00 419.00 176.00" xmlns="http://www.w3.org/2000/svg" xmlns:xlink="http://www.w3.org/1999/xlink">
<g id="graph0" class="graph" transform="scale(1 1) rotate(0) translate(4 172)">
<title>interface/driver_ir_remote_interface.h</title>
<!-- Node1 -->
<g id="Node000001" class="node">
<title>Node1</title>
<g id="a_Node000001"><a xlink:title="driver ir_remote interface header file">
<polygon fill="#999999" stroke="#666666" points="266.88,-168 164.62,-168 164.62,-136 266.88,-136 266.88,-168"/>
<text xml:space="preserve" text-anchor="start" x="172.62" y="-154.5" font-family="Helvetica,sans-Serif" font-size="10.00">interface/driver_ir</text>
<text xml:space="preserve" text-anchor="middle" x="215.75" y="-142.5" font-family="Helvetica,sans-Serif" font-size="10.00">_remote_interface.h</text>
</a>
</g>
</g>
<!-- Node2 -->
<g id="Node000002" class="node">
<title>Node2</title>
<g id="a_Node000002"><a xlink:href="driver__ir__remote__basic_8h.html" target="_top" xlink:title="driver ir_remote basic header file">
<polygon fill="white" stroke="#666666" points="125.5,-100 0,-100 0,-68 125.5,-68 125.5,-100"/>
<text xml:space="preserve" text-anchor="start" x="8" y="-86.5" font-family="Helvetica,sans-Serif" font-size="10.00">example/driver_ir_remote</text>
<text xml:space="preserve" text-anchor="middle" x="62.75" y="-74.5" font-family="Helvetica,sans-Serif" font-size="10.00">_basic.h</text>
</a>
</g>
</g>
<!-- Node1&#45;&gt;Node2 -->
<g id="edge1_Node000001_Node000002" class="edge">
<title>Node1&#45;&gt;Node2</title>
<g id="a_edge1_Node000001_Node000002"><a xlink:title=" ">
<path fill="none" stroke="#63b8ff" d="M169.45,-131.03C146.73,-121.23 119.79,-109.61 98.66,-100.49"/>
<polygon fill="#63b8ff" stroke="#63b8ff" points="167.92,-134.18 178.49,-134.93 170.69,-127.75 167.92,-134.18"/>
</a>
</g>
</g>
<!-- Node4 -->
<g id="Node000004" class="node">
<title>Node4</title>
<g id="a_Node000004"><a xlink:href="driver__ir__remote__interface__template_8c.html" target="_top" xlink:title="driver ir_remote interface template source file">
<polygon fill="white" stroke="#666666" points="288.25,-100 143.25,-100 143.25,-68 288.25,-68 288.25,-100"/>
<text xml:space="preserve" text-anchor="start" x="151.25" y="-86.5" font-family="Helvetica,sans-Serif" font-size="10.00">interface/driver_ir</text>
<text xml:space="preserve" text-anchor="middle" x="215.75" y="-74.5" font-family="Helvetica,sans-Serif" font-size="10.00">_remote_interface_template.c</text>
</a>
</g>
</g>
<!-- Node1&#45;&gt;Node4 -->
<g id="edge3_Node000001_Node000004" class="edge">
<title>Node1&#45;&gt;Node4</title>
<g id="a_edge3_Node000001_Node000004"><a xlink:title=" ">
<path fill="none" stroke="#63b8ff" d="M215.75,-124.31C215.75,-116.12 215.75,-107.38 215.75,-100.22"/>
<polygon fill="#63b8ff" stroke="#63b8ff" points="212.25,-124.18 215.75,-134.18 219.25,-124.18 212.25,-124.18"/>
</a>
</g>
</g>
<!-- Node5 -->
<g id="Node000005" class="node">
<title>Node5</title>
<g id="a_Node000005"><a xlink:href="driver__ir__remote__receive__test_8h.html" target="_top" xlink:title="driver ir remote receive test header file">
<polygon fill="white" stroke="#666666" points="411.38,-100 306.12,-100 306.12,-68 411.38,-68 411.38,-100"/>
<text xml:space="preserve" text-anchor="start" x="314.12" y="-86.5" font-family="Helvetica,sans-Serif" font-size="10.00">test/driver_ir_remote</text>
<text xml:space="preserve" text-anchor="middle" x="358.75" y="-74.5" font-family="Helvetica,sans-Serif" font-size="10.00">_receive_test.h</text>
</a>
</g>
</g>
<!-- Node1&#45;&gt;Node5 -->
<g id="edge4_Node000001_Node000005" class="edge">
<title>Node1&#45;&gt;Node5</title>
<g id="a_edge4_Node000001_Node000005"><a xlink:title=" ">
<path fill="none" stroke="#63b8ff" d="M259.64,-130.74C280.83,-120.96 305.84,-109.42 325.43,-100.38"/>
<polygon fill="#63b8ff" stroke="#63b8ff" points="258.26,-127.52 250.65,-134.89 261.2,-133.88 258.26,-127.52"/>
</a>
</g>
</g>
<!-- Node3 -->
<g id="Node000003" class="node">
<title>Node3</title>
<g id="a_Node000003"><a xlink:href="driver__ir__remote__basic_8c.html" target="_top" xlink:title="driver ir_remote basic source file">
<polygon fill="white" stroke="#666666" points="125.5,-32 0,-32 0,0 125.5,0 125.5,-32"/>
<text xml:space="preserve" text-anchor="start" x="8" y="-18.5" font-family="Helvetica,sans-Serif" font-size="10.00">example/driver_ir_remote</text>
<text xml:space="preserve" text-anchor="middle" x="62.75" y="-6.5" font-family="Helvetica,sans-Serif" font-size="10.00">_basic.c</text>
</a>
</g>
</g>
<!-- Node2&#45;&gt;Node3 -->
<g id="edge2_Node000002_Node000003" class="edge">
<title>Node2&#45;&gt;Node3</title>
<g id="a_edge2_Node000002_Node000003"><a xlink:title=" ">
<path fill="none" stroke="#63b8ff" d="M62.75,-56.31C62.75,-48.12 62.75,-39.38 62.75,-32.22"/>
<polygon fill="#63b8ff" stroke="#63b8ff" points="59.25,-56.18 62.75,-66.18 66.25,-56.18 59.25,-56.18"/>
</a>
</g>
</g>
<!-- Node6 -->
<g id="Node000006" class="node">
<title>Node6</title>
<g id="a_Node000006"><a xlink:href="driver__ir__remote__receive__test_8c.html" target="_top" xlink:title="driver ir_remote receive test source file">
<polygon fill="white" stroke="#666666" points="411.38,-32 306.12,-32 306.12,0 411.38,0 411.38,-32"/>
<text xml:space="preserve" text-anchor="start" x="314.12" y="-18.5" font-family="Helvetica,sans-Serif" font-size="10.00">test/driver_ir_remote</text>
<text xml:space="preserve" text-anchor="middle" x="358.75" y="-6.5" font-family="Helvetica,sans-Serif" font-size="10.00">_receive_test.c</text>
</a>
</g>
</g>
<!-- Node5&#45;&gt;Node6 -->
<g id="edge5_Node000005_Node000006" class="edge">
<title>Node5&#45;&gt;Node6</title>
<g id="a_edge5_Node000005_Node000006"><a xlink:title=" ">
<path fill="none" stroke="#63b8ff" d="M358.75,-56.31C358.75,-48.12 358.75,-39.38 358.75,-32.22"/>
<polygon fill="#63b8ff" stroke="#63b8ff" points="355.25,-56.18 358.75,-66.18 362.25,-56.18 355.25,-56.18"/>
</a>
</g>
</g>
</g>
</svg>
