<?xml version="1.0" encoding="UTF-8" standalone="no"?>
<!DOCTYPE svg PUBLIC "-//W3C//DTD SVG 1.1//EN"
 "http://www.w3.org/Graphics/SVG/1.1/DTD/svg11.dtd">
<!-- Generated by graphviz version 13.1.0 (20250701.0955)
 -->
<!-- Title: ir_remote driver function Pages: 1 -->
<svg width="288pt" height="240pt"
 viewBox="0.00 0.00 288.00 240.00" xmlns="http://www.w3.org/2000/svg" xmlns:xlink="http://www.w3.org/1999/xlink">
<g id="graph0" class="graph" transform="scale(1 1) rotate(0) translate(4 236)">
<title>ir_remote driver function</title>
<!-- Node3 -->
<g id="Node000003" class="node">
<title>Node3</title>
<g id="a_Node000003"><a xlink:href="group__ir__remote__basic__driver.html" target="_top" xlink:title="ir_remote basic driver modules">
<polygon fill="white" stroke="#666666" points="273.5,-232 163.75,-232 163.75,-200 273.5,-200 273.5,-232"/>
<text xml:space="preserve" text-anchor="start" x="171.75" y="-218.5" font-family="Helvetica,sans-Serif" font-size="10.00">ir_remote basic driver</text>
<text xml:space="preserve" text-anchor="middle" x="218.62" y="-206.5" font-family="Helvetica,sans-Serif" font-size="10.00"> function</text>
</a>
</g>
</g>
<!-- Node1 -->
<g id="Node000001" class="node">
<title>Node1</title>
<g id="a_Node000001"><a xlink:title="ir_remote driver modules">
<polygon fill="#999999" stroke="#666666" points="121,-126 0,-126 0,-106 121,-106 121,-126"/>
<text xml:space="preserve" text-anchor="middle" x="60.5" y="-112.5" font-family="Helvetica,sans-Serif" font-size="10.00">ir_remote driver function</text>
</a>
</g>
</g>
<!-- Node1&#45;&gt;Node3 -->
<g id="edge2" class="edge">
<title>Node1&#45;&gt;Node3</title>
<path fill="none" stroke="black" d="M80.94,-133.9C99.46,-150.29 128.65,-174.45 157,-191 162.21,-194.04 167.86,-196.9 173.55,-199.51"/>
<polygon fill="black" stroke="black" points="83.42,-131.42 73.65,-127.34 78.74,-136.63 83.42,-131.42"/>
</g>
<!-- Node5 -->
<g id="Node000005" class="node">
<title>Node5</title>
<g id="a_Node000005"><a xlink:href="group__ir__remote__example__driver.html" target="_top" xlink:title="ir_remote example driver modules">
<polygon fill="white" stroke="#666666" points="280.25,-182 157,-182 157,-150 280.25,-150 280.25,-182"/>
<text xml:space="preserve" text-anchor="start" x="165" y="-168.5" font-family="Helvetica,sans-Serif" font-size="10.00">ir_remote example driver</text>
<text xml:space="preserve" text-anchor="middle" x="218.62" y="-156.5" font-family="Helvetica,sans-Serif" font-size="10.00"> function</text>
</a>
</g>
</g>
<!-- Node1&#45;&gt;Node5 -->
<g id="edge4" class="edge">
<title>Node1&#45;&gt;Node5</title>
<path fill="none" stroke="black" d="M104.97,-129.92C123.96,-136 146.38,-143.18 166.19,-149.53"/>
<polygon fill="black" stroke="black" points="106.26,-126.66 95.67,-126.94 104.13,-133.33 106.26,-126.66"/>
</g>
<!-- Node4 -->
<g id="Node000004" class="node">
<title>Node4</title>
<g id="a_Node000004"><a xlink:href="group__ir__remote__interface__driver.html" target="_top" xlink:title="ir_remote interface driver modules">
<polygon fill="white" stroke="#666666" points="267.12,-132 170.12,-132 170.12,-100 267.12,-100 267.12,-132"/>
<text xml:space="preserve" text-anchor="start" x="178.12" y="-118.5" font-family="Helvetica,sans-Serif" font-size="10.00">ir_remote interface</text>
<text xml:space="preserve" text-anchor="middle" x="218.62" y="-106.5" font-family="Helvetica,sans-Serif" font-size="10.00"> driver function</text>
</a>
</g>
</g>
<!-- Node1&#45;&gt;Node4 -->
<g id="edge3" class="edge">
<title>Node1&#45;&gt;Node4</title>
<path fill="none" stroke="black" d="M132.8,-116C145.31,-116 158.06,-116 169.73,-116"/>
<polygon fill="black" stroke="black" points="132.93,-112.5 122.93,-116 132.93,-119.5 132.93,-112.5"/>
</g>
<!-- Node2 -->
<g id="Node000002" class="node">
<title>Node2</title>
<g id="a_Node000002"><a xlink:href="group__ir__remote__link__driver.html" target="_top" xlink:title="ir_remote link driver modules">
<polygon fill="white" stroke="#666666" points="269.38,-82 167.88,-82 167.88,-50 269.38,-50 269.38,-82"/>
<text xml:space="preserve" text-anchor="start" x="175.88" y="-68.5" font-family="Helvetica,sans-Serif" font-size="10.00">ir_remote link driver</text>
<text xml:space="preserve" text-anchor="middle" x="218.62" y="-56.5" font-family="Helvetica,sans-Serif" font-size="10.00"> function</text>
</a>
</g>
</g>
<!-- Node1&#45;&gt;Node2 -->
<g id="edge1" class="edge">
<title>Node1&#45;&gt;Node2</title>
<path fill="none" stroke="black" d="M105.16,-102.02C124.5,-95.82 147.37,-88.5 167.41,-82.08"/>
<polygon fill="black" stroke="black" points="104.13,-98.67 95.67,-105.06 106.26,-105.34 104.13,-98.67"/>
</g>
<!-- Node6 -->
<g id="Node000006" class="node">
<title>Node6</title>
<g id="a_Node000006"><a xlink:href="group__ir__remote__test__driver.html" target="_top" xlink:title="ir_remote test driver modules">
<polygon fill="white" stroke="#666666" points="270.12,-32 167.12,-32 167.12,0 270.12,0 270.12,-32"/>
<text xml:space="preserve" text-anchor="start" x="175.12" y="-18.5" font-family="Helvetica,sans-Serif" font-size="10.00">ir_remote test driver</text>
<text xml:space="preserve" text-anchor="middle" x="218.62" y="-6.5" font-family="Helvetica,sans-Serif" font-size="10.00"> function</text>
</a>
</g>
</g>
<!-- Node1&#45;&gt;Node6 -->
<g id="edge5" class="edge">
<title>Node1&#45;&gt;Node6</title>
<path fill="none" stroke="black" d="M80.94,-98.1C99.46,-81.71 128.65,-57.55 157,-41 162.21,-37.96 167.86,-35.1 173.55,-32.49"/>
<polygon fill="black" stroke="black" points="78.74,-95.37 73.65,-104.66 83.42,-100.58 78.74,-95.37"/>
</g>
</g>
</svg>
