<?xml version="1.0" encoding="UTF-8" standalone="no"?>
<!DOCTYPE svg PUBLIC "-//W3C//DTD SVG 1.1//EN"
 "http://www.w3.org/Graphics/SVG/1.1/DTD/svg11.dtd">
<!-- Generated by graphviz version 13.1.0 (20250701.0955)
 -->
<!-- Title: ir_remote_basic_init Pages: 1 -->
<svg width="246pt" height="178pt"
 viewBox="0.00 0.00 246.00 178.00" xmlns="http://www.w3.org/2000/svg" xmlns:xlink="http://www.w3.org/1999/xlink">
<g id="graph0" class="graph" transform="scale(1 1) rotate(0) translate(4 174)">
<title>ir_remote_basic_init</title>
<!-- Node1 -->
<g id="Node000001" class="node">
<title>Node1</title>
<g id="a_Node000001"><a xlink:title="basic example init">
<polygon fill="#999999" stroke="#666666" points="103,-101 0,-101 0,-81 103,-81 103,-101"/>
<text xml:space="preserve" text-anchor="middle" x="51.5" y="-87.5" font-family="Helvetica,sans-Serif" font-size="10.00">ir_remote_basic_init</text>
</a>
</g>
</g>
<!-- Node2 -->
<g id="Node000002" class="node">
<title>Node2</title>
<g id="a_Node000002"><a xlink:href="group__ir__remote__basic__driver.html#ga4583935a7b5c1ade655879e2e6fb307d" target="_top" xlink:title="initialize the chip">
<polygon fill="white" stroke="#666666" points="225.88,-170 151.38,-170 151.38,-150 225.88,-150 225.88,-170"/>
<text xml:space="preserve" text-anchor="middle" x="188.62" y="-156.5" font-family="Helvetica,sans-Serif" font-size="10.00">ir_remote_init</text>
</a>
</g>
</g>
<!-- Node1&#45;&gt;Node2 -->
<g id="edge1_Node000001_Node000002" class="edge">
<title>Node1&#45;&gt;Node2</title>
<g id="a_edge1_Node000001_Node000002"><a xlink:title=" ">
<path fill="none" stroke="#63b8ff" d="M68.68,-101.35C85.76,-112.03 113.68,-128.82 139,-141 141.95,-142.42 145.03,-143.81 148.15,-145.17"/>
<polygon fill="#63b8ff" stroke="#63b8ff" points="146.8,-148.39 157.38,-148.98 149.47,-141.92 146.8,-148.39"/>
</a>
</g>
</g>
<!-- Node3 -->
<g id="Node000003" class="node">
<title>Node3</title>
<g id="a_Node000003"><a xlink:href="group__ir__remote__interface__driver.html#gae2bcde076de4f7f0b36209a218a08fd0" target="_top" xlink:title="interface print format data">
<polygon fill="white" stroke="#666666" points="238.25,-132 139,-132 139,-100 238.25,-100 238.25,-132"/>
<text xml:space="preserve" text-anchor="start" x="147" y="-118.5" font-family="Helvetica,sans-Serif" font-size="10.00">ir_remote_interface</text>
<text xml:space="preserve" text-anchor="middle" x="188.62" y="-106.5" font-family="Helvetica,sans-Serif" font-size="10.00">_debug_print</text>
</a>
</g>
</g>
<!-- Node1&#45;&gt;Node3 -->
<g id="edge2_Node000001_Node000003" class="edge">
<title>Node1&#45;&gt;Node3</title>
<g id="a_edge2_Node000001_Node000003"><a xlink:title=" ">
<path fill="none" stroke="#63b8ff" d="M103.2,-100.38C111.23,-101.87 119.6,-103.41 127.82,-104.94"/>
<polygon fill="#63b8ff" stroke="#63b8ff" points="126.92,-108.33 137.39,-106.71 128.2,-101.45 126.92,-108.33"/>
</a>
</g>
</g>
<!-- Node4 -->
<g id="Node000004" class="node">
<title>Node4</title>
<g id="a_Node000004"><a xlink:href="group__ir__remote__interface__driver.html#gacba90ca146a52e315444de8a599dafb3" target="_top" xlink:title="interface delay ms">
<polygon fill="white" stroke="#666666" points="238.25,-82 139,-82 139,-50 238.25,-50 238.25,-82"/>
<text xml:space="preserve" text-anchor="start" x="147" y="-68.5" font-family="Helvetica,sans-Serif" font-size="10.00">ir_remote_interface</text>
<text xml:space="preserve" text-anchor="middle" x="188.62" y="-56.5" font-family="Helvetica,sans-Serif" font-size="10.00">_delay_ms</text>
</a>
</g>
</g>
<!-- Node1&#45;&gt;Node4 -->
<g id="edge3_Node000001_Node000004" class="edge">
<title>Node1&#45;&gt;Node4</title>
<g id="a_edge3_Node000001_Node000004"><a xlink:title=" ">
<path fill="none" stroke="#63b8ff" d="M103.2,-81.62C111.23,-80.13 119.6,-78.59 127.82,-77.06"/>
<polygon fill="#63b8ff" stroke="#63b8ff" points="128.2,-80.55 137.39,-75.29 126.92,-73.67 128.2,-80.55"/>
</a>
</g>
</g>
<!-- Node5 -->
<g id="Node000005" class="node">
<title>Node5</title>
<g id="a_Node000005"><a xlink:href="group__ir__remote__interface__driver.html#ga72205bcc2a8ac5755c852877c927157f" target="_top" xlink:title="interface timestamp read">
<polygon fill="white" stroke="#666666" points="238.25,-32 139,-32 139,0 238.25,0 238.25,-32"/>
<text xml:space="preserve" text-anchor="start" x="147" y="-18.5" font-family="Helvetica,sans-Serif" font-size="10.00">ir_remote_interface</text>
<text xml:space="preserve" text-anchor="middle" x="188.62" y="-6.5" font-family="Helvetica,sans-Serif" font-size="10.00">_timestamp_read</text>
</a>
</g>
</g>
<!-- Node1&#45;&gt;Node5 -->
<g id="edge4_Node000001_Node000005" class="edge">
<title>Node1&#45;&gt;Node5</title>
<g id="a_edge4_Node000001_Node000005"><a xlink:title=" ">
<path fill="none" stroke="#63b8ff" d="M69.92,-80.59C87.29,-70.3 114.79,-54.21 139,-41 140.94,-39.94 142.92,-38.87 144.93,-37.8"/>
<polygon fill="#63b8ff" stroke="#63b8ff" points="146.52,-40.92 153.74,-33.16 143.26,-34.72 146.52,-40.92"/>
</a>
</g>
</g>
</g>
</svg>
