<?xml version="1.0" encoding="UTF-8" standalone="no"?>
<!DOCTYPE svg PUBLIC "-//W3C//DTD SVG 1.1//EN"
 "http://www.w3.org/Graphics/SVG/1.1/DTD/svg11.dtd">
<!-- Generated by graphviz version 13.1.0 (20250701.0955)
 -->
<!-- Title: ir_remote_handle_s Pages: 1 -->
<svg width="290pt" height="176pt"
 viewBox="0.00 0.00 290.00 176.00" xmlns="http://www.w3.org/2000/svg" xmlns:xlink="http://www.w3.org/1999/xlink">
<g id="graph0" class="graph" transform="scale(1 1) rotate(0) translate(4 172)">
<title>ir_remote_handle_s</title>
<!-- Node1 -->
<g id="Node000001" class="node">
<title>Node1</title>
<g id="a_Node000001"><a xlink:title="ir_remote handle structure definition">
<polygon fill="#999999" stroke="#666666" points="195.88,-20 95.12,-20 95.12,0 195.88,0 195.88,-20"/>
<text xml:space="preserve" text-anchor="middle" x="145.5" y="-6.5" font-family="Helvetica,sans-Serif" font-size="10.00">ir_remote_handle_s</text>
</a>
</g>
</g>
<!-- Node2 -->
<g id="Node000002" class="node">
<title>Node2</title>
<g id="a_Node000002"><a xlink:href="structir__remote__decode__s.html" target="_top" xlink:title="ir_remote decode structure definition">
<polygon fill="white" stroke="#666666" points="197.38,-94 93.62,-94 93.62,-74 197.38,-74 197.38,-94"/>
<text xml:space="preserve" text-anchor="middle" x="145.5" y="-80.5" font-family="Helvetica,sans-Serif" font-size="10.00">ir_remote_decode_s</text>
</a>
</g>
</g>
<!-- Node2&#45;&gt;Node1 -->
<g id="edge1_Node000001_Node000002" class="edge">
<title>Node2&#45;&gt;Node1</title>
<g id="a_edge1_Node000001_Node000002"><a xlink:title=" ">
<path fill="none" stroke="#9a32cd" stroke-dasharray="5,2" d="M145.5,-62.18C145.5,-48.29 145.5,-30.71 145.5,-20.19"/>
<polygon fill="#9a32cd" stroke="#9a32cd" points="142,-62.07 145.5,-72.07 149,-62.07 142,-62.07"/>
</a>
</g>
<text xml:space="preserve" text-anchor="start" x="148.5" y="-43.5" font-family="Helvetica,sans-Serif" font-size="10.00" fill="grey">decode</text>
</g>
<!-- Node3 -->
<g id="Node000003" class="node">
<title>Node3</title>
<g id="a_Node000003"><a xlink:href="structir__remote__time__s.html" target="_top" xlink:title="ir_remote time structure definition">
<polygon fill="white" stroke="#666666" points="91,-168 0,-168 0,-148 91,-148 91,-168"/>
<text xml:space="preserve" text-anchor="middle" x="45.5" y="-154.5" font-family="Helvetica,sans-Serif" font-size="10.00">ir_remote_time_s</text>
</a>
</g>
</g>
<!-- Node3&#45;&gt;Node1 -->
<g id="edge3_Node000001_Node000003" class="edge">
<title>Node3&#45;&gt;Node1</title>
<g id="a_edge3_Node000001_Node000003"><a xlink:title=" ">
<path fill="none" stroke="#9a32cd" stroke-dasharray="5,2" d="M37.75,-136.75C32.32,-119.02 27.8,-93.18 38.75,-74 54.54,-46.34 87.75,-29.61 112.97,-20.41"/>
<polygon fill="#9a32cd" stroke="#9a32cd" points="34.41,-137.8 40.98,-146.11 41.03,-135.51 34.41,-137.8"/>
</a>
</g>
<text xml:space="preserve" text-anchor="start" x="41.75" y="-80.5" font-family="Helvetica,sans-Serif" font-size="10.00" fill="grey">last_time</text>
</g>
<!-- Node3&#45;&gt;Node2 -->
<g id="edge2_Node000002_Node000003" class="edge">
<title>Node3&#45;&gt;Node2</title>
<g id="a_edge2_Node000002_Node000003"><a xlink:title=" ">
<path fill="none" stroke="#9a32cd" stroke-dasharray="5,2" d="M67.81,-140.94C87.66,-126.64 116.03,-106.22 132.42,-94.42"/>
<polygon fill="#9a32cd" stroke="#9a32cd" points="65.87,-138.02 59.8,-146.7 69.96,-143.7 65.87,-138.02"/>
</a>
</g>
<text xml:space="preserve" text-anchor="start" x="110.4" y="-117.5" font-family="Helvetica,sans-Serif" font-size="10.00" fill="grey">t</text>
</g>
<!-- Node4 -->
<g id="Node000004" class="node">
<title>Node4</title>
<g id="a_Node000004"><a xlink:href="structir__remote__s.html" target="_top" xlink:title="ir_remote structure definition">
<polygon fill="white" stroke="#666666" points="282,-94 215,-94 215,-74 282,-74 282,-94"/>
<text xml:space="preserve" text-anchor="middle" x="248.5" y="-80.5" font-family="Helvetica,sans-Serif" font-size="10.00">ir_remote_s</text>
</a>
</g>
</g>
<!-- Node4&#45;&gt;Node1 -->
<g id="edge4_Node000001_Node000004" class="edge">
<title>Node4&#45;&gt;Node1</title>
<g id="a_edge4_Node000001_Node000004"><a xlink:title=" ">
<path fill="none" stroke="#9a32cd" stroke-dasharray="5,2" d="M227.57,-67.04C215.91,-58.28 201.04,-47.34 187.5,-38 178.65,-31.9 168.52,-25.37 160.42,-20.27"/>
<polygon fill="#9a32cd" stroke="#9a32cd" points="225.22,-69.65 235.31,-72.89 229.44,-64.07 225.22,-69.65"/>
</a>
</g>
<text xml:space="preserve" text-anchor="start" x="214.25" y="-43.5" font-family="Helvetica,sans-Serif" font-size="10.00" fill="grey">last_code</text>
</g>
</g>
</svg>
